<svg width="16" height="16" viewBox="0 0 16 16" fill="none" xmlns="http://www.w3.org/2000/svg">
<g clip-path="url(#clip0_2202_1190)">
<path d="M14.6667 6.00001H11.4734L8.54669 1.62001C8.28002 1.22668 7.70002 1.22668 7.44002 1.62001L4.51335 6.00001H1.33335C0.966687 6.00001 0.666687 6.30001 0.666687 6.66668C0.666687 6.72668 0.673354 6.78668 0.693354 6.84668L2.38669 13.0267C2.54002 13.5867 3.05335 14 3.66669 14H12.3334C12.9467 14 13.46 13.5867 13.62 13.0267L15.3134 6.84668L15.3334 6.66668C15.3334 6.30001 15.0334 6.00001 14.6667 6.00001ZM7.99335 3.19335L9.86669 6.00001H6.12002L7.99335 3.19335ZM8.00002 11.3333C7.26669 11.3333 6.66669 10.7333 6.66669 10C6.66669 9.26668 7.26669 8.66668 8.00002 8.66668C8.73335 8.66668 9.33335 9.26668 9.33335 10C9.33335 10.7333 8.73335 11.3333 8.00002 11.3333Z" fill="#27AE60"/>
</g>
<defs>
<clipPath id="clip0_2202_1190">
<rect width="16" height="16" fill="white"/>
</clipPath>
</defs>
</svg>
