<svg width="24" height="24" viewBox="0 0 24 24" fill="none" xmlns="http://www.w3.org/2000/svg">
<path d="M17.3531 8.51094C17.4469 8.60469 17.5 8.73125 17.5 8.86406V18.5C17.5 18.7766 17.2766 19 17 19H7C6.72344 19 6.5 18.7766 6.5 18.5V5.5C6.5 5.22344 6.72344 5 7 5H13.6359C13.7688 5 13.8969 5.05313 13.9906 5.14688L17.3531 8.51094ZM16.3469 9.09375L13.4062 6.15313V9.09375H16.3469ZM13.8941 13.9572C13.6569 13.9494 13.4047 13.9677 13.1183 14.0034C12.7386 13.7692 12.483 13.4475 12.3014 12.9748L12.3181 12.9064L12.3375 12.8255C12.4047 12.5422 12.4408 12.3355 12.4516 12.127C12.4597 11.9697 12.4509 11.8245 12.423 11.69C12.3714 11.3995 12.1659 11.2297 11.907 11.2192C11.6656 11.2094 11.4437 11.3442 11.387 11.5531C11.2947 11.8909 11.3488 12.3355 11.5445 13.0936C11.2952 13.6881 10.9656 14.3852 10.7445 14.7739C10.4494 14.9261 10.2195 15.0645 10.0264 15.218C9.77172 15.4206 9.61266 15.6289 9.56891 15.8477C9.54766 15.9491 9.57969 16.0816 9.65266 16.1902C9.73547 16.3133 9.86016 16.3933 10.0097 16.4048C10.387 16.4341 10.8508 16.045 11.3628 15.1664C11.4142 15.1492 11.4686 15.1311 11.535 15.1086L11.7209 15.0458C11.8386 15.0061 11.9239 14.9777 12.0083 14.9503C12.3739 14.8313 12.6505 14.7561 12.902 14.7133C13.3392 14.9473 13.8445 15.1008 14.1848 15.1008C14.4658 15.1008 14.6556 14.9552 14.7242 14.7259C14.7844 14.5247 14.7367 14.2913 14.6073 14.1622C14.4736 14.0308 14.2277 13.968 13.8941 13.9572ZM10.0192 15.9637V15.9581L10.0212 15.9528C10.0441 15.8937 10.0735 15.8373 10.1087 15.7847C10.1756 15.6819 10.2677 15.5737 10.3817 15.4586C10.443 15.3969 10.5067 15.3367 10.5816 15.2692C10.5983 15.2542 10.7052 15.1591 10.7252 15.1403L10.8997 14.9778L10.7728 15.1798C10.5803 15.4867 10.4062 15.7077 10.2572 15.8517C10.2023 15.9048 10.1541 15.9439 10.115 15.9691C10.1021 15.9777 10.0885 15.9851 10.0742 15.9913C10.0678 15.9939 10.0622 15.9955 10.0566 15.9959C10.0506 15.9967 10.0446 15.9959 10.0391 15.9936C10.0332 15.9911 10.0282 15.987 10.0246 15.9817C10.0211 15.9764 10.0192 15.9701 10.0192 15.9637ZM11.987 12.5531L11.9517 12.6156L11.9298 12.5472C11.8814 12.3936 11.8458 12.1622 11.8359 11.9534C11.8247 11.7159 11.8436 11.5734 11.9186 11.5734C12.0239 11.5734 12.0722 11.7422 12.0759 11.9961C12.0794 12.2192 12.0442 12.4514 11.9869 12.5531H11.987ZM11.8962 13.4666L11.9202 13.4033L11.9528 13.4627C12.1355 13.7945 12.3725 14.0714 12.6331 14.2644L12.6894 14.3059L12.6208 14.32C12.3656 14.3728 12.128 14.4522 11.803 14.5833C11.8369 14.5695 11.4652 14.7217 11.3711 14.7578L11.2891 14.7892L11.3328 14.713C11.5258 14.377 11.7041 13.9736 11.8961 13.4666H11.8962ZM14.3591 14.6581C14.2362 14.7066 13.9719 14.6633 13.5064 14.4645L13.3883 14.4142L13.5164 14.4048C13.8805 14.3778 14.1383 14.3978 14.2886 14.4528C14.3527 14.4762 14.3953 14.5058 14.4142 14.5395C14.4242 14.5555 14.4275 14.5747 14.4235 14.5931C14.4196 14.6115 14.4086 14.6277 14.393 14.6381C14.383 14.6469 14.3715 14.6537 14.3591 14.6581Z" fill="#E95656"/>
</svg>
