<svg width="14" height="14" viewBox="0 0 14 14" fill="none" xmlns="http://www.w3.org/2000/svg">
<g clip-path="url(#clip0_2218_448)">
<path d="M11.6667 2.33334H2.33332C1.69166 2.33334 1.17249 2.85834 1.17249 3.5L1.16666 10.5C1.16666 11.1417 1.69166 11.6667 2.33332 11.6667H11.6667C12.3083 11.6667 12.8333 11.1417 12.8333 10.5V3.5C12.8333 2.85834 12.3083 2.33334 11.6667 2.33334ZM11.4333 4.8125L7.30916 7.39084C7.12249 7.5075 6.87749 7.5075 6.69082 7.39084L2.56666 4.8125C2.42082 4.71917 2.33332 4.56167 2.33332 4.3925C2.33332 4.00167 2.75916 3.76834 3.09166 3.9725L6.99999 6.41667L10.9083 3.9725C11.2408 3.76834 11.6667 4.00167 11.6667 4.3925C11.6667 4.56167 11.5792 4.71917 11.4333 4.8125Z" fill="#BDBDBD"/>
</g>
<defs>
<clipPath id="clip0_2218_448">
<rect width="14" height="14" fill="white"/>
</clipPath>
</defs>
</svg>
