<svg width="16" height="17" viewBox="0 0 16 17" fill="none" xmlns="http://www.w3.org/2000/svg">
<g clip-path="url(#clip0_2202_1624)">
<path d="M7.33333 12.5H8.66667C9.03333 12.5 9.33333 12.2 9.33333 11.8333C9.33333 11.4667 9.03333 11.1667 8.66667 11.1667H7.33333C6.96667 11.1667 6.66667 11.4667 6.66667 11.8333C6.66667 12.2 6.96667 12.5 7.33333 12.5ZM2 5.16667C2 5.53333 2.3 5.83333 2.66667 5.83333H13.3333C13.7 5.83333 14 5.53333 14 5.16667C14 4.8 13.7 4.5 13.3333 4.5H2.66667C2.3 4.5 2 4.8 2 5.16667ZM4.66667 9.16667H11.3333C11.7 9.16667 12 8.86667 12 8.5C12 8.13333 11.7 7.83333 11.3333 7.83333H4.66667C4.3 7.83333 4 8.13333 4 8.5C4 8.86667 4.3 9.16667 4.66667 9.16667Z" fill="#BDBDBD"/>
</g>
<defs>
<clipPath id="clip0_2202_1624">
<rect width="16" height="16" fill="white" transform="translate(0 0.5)"/>
</clipPath>
</defs>
</svg>
