<svg width="12" height="12" viewBox="0 0 12 12" fill="none" xmlns="http://www.w3.org/2000/svg">
<path d="M0 1.33333V3.33333C0 3.7 0.3 4 0.666667 4C1.03333 4 1.33333 3.7 1.33333 3.33333V2C1.33333 1.63333 1.63333 1.33333 2 1.33333H3.33333C3.7 1.33333 4 1.03333 4 0.666667C4 0.3 3.7 0 3.33333 0H1.33333C0.6 0 0 0.6 0 1.33333ZM0.666667 8C0.3 8 0 8.3 0 8.66667V10.6667C0 11.4 0.6 12 1.33333 12H3.33333C3.7 12 4 11.7 4 11.3333C4 10.9667 3.7 10.6667 3.33333 10.6667H2C1.63333 10.6667 1.33333 10.3667 1.33333 10V8.66667C1.33333 8.3 1.03333 8 0.666667 8ZM10.6667 10C10.6667 10.3667 10.3667 10.6667 10 10.6667H8.66667C8.3 10.6667 8 10.9667 8 11.3333C8 11.7 8.3 12 8.66667 12H10.6667C11.4 12 12 11.4 12 10.6667V8.66667C12 8.3 11.7 8 11.3333 8C10.9667 8 10.6667 8.3 10.6667 8.66667V10ZM10.6667 0H8.66667C8.3 0 8 0.3 8 0.666667C8 1.03333 8.3 1.33333 8.66667 1.33333H10C10.3667 1.33333 10.6667 1.63333 10.6667 2V3.33333C10.6667 3.7 10.9667 4 11.3333 4C11.7 4 12 3.7 12 3.33333V1.33333C12 0.6 11.4 0 10.6667 0Z" fill="white"/>
</svg>
