<svg width="14" height="14" viewBox="0 0 14 14" fill="none" xmlns="http://www.w3.org/2000/svg">
<g clip-path="url(#clip0_205_8682)">
<path d="M7.00002 1.16669C4.74252 1.16669 2.91669 2.99252 2.91669 5.25002C2.91669 7.68252 5.49502 11.0367 6.55669 12.3142C6.79002 12.5942 7.21585 12.5942 7.44919 12.3142C8.50502 11.0367 11.0834 7.68252 11.0834 5.25002C11.0834 2.99252 9.25752 1.16669 7.00002 1.16669ZM7.00002 6.70835C6.19502 6.70835 5.54169 6.05502 5.54169 5.25002C5.54169 4.44502 6.19502 3.79169 7.00002 3.79169C7.80502 3.79169 8.45835 4.44502 8.45835 5.25002C8.45835 6.05502 7.80502 6.70835 7.00002 6.70835Z" fill="#BDBDBD"/>
</g>
<defs>
<clipPath id="clip0_205_8682">
<rect width="14" height="14" fill="white"/>
</clipPath>
</defs>
</svg>
