<svg width="15" height="14" viewBox="0 0 15 14" fill="none" xmlns="http://www.w3.org/2000/svg">
<path d="M7.5 8.16667C8.46833 8.16667 9.25 7.385 9.25 6.41667V2.91667C9.25 1.94833 8.46833 1.16667 7.5 1.16667C6.53167 1.16667 5.75 1.94833 5.75 2.91667V6.41667C5.75 7.385 6.53167 8.16667 7.5 8.16667ZM10.9475 6.41667C10.6617 6.41667 10.4225 6.62667 10.3758 6.9125C10.1367 8.28333 8.94083 9.33333 7.5 9.33333C6.05917 9.33333 4.86333 8.28333 4.62417 6.9125C4.5775 6.62667 4.33833 6.41667 4.0525 6.41667C3.69667 6.41667 3.41667 6.73167 3.46917 7.08167C3.755 8.83167 5.155 10.2025 6.91667 10.4533V11.6667C6.91667 11.9875 7.17917 12.25 7.5 12.25C7.82083 12.25 8.08333 11.9875 8.08333 11.6667V10.4533C9.845 10.2025 11.245 8.83167 11.5308 7.08167C11.5892 6.73167 11.3033 6.41667 10.9475 6.41667Z" fill="#333333"/>
</svg>
