<svg width="15" height="14" viewBox="0 0 15 14" fill="none" xmlns="http://www.w3.org/2000/svg">
<path d="M9.24999 6.18333V2.91667C9.24999 1.94833 8.46832 1.16667 7.49999 1.16667C6.60166 1.16667 5.87249 1.84333 5.77332 2.7125L9.24999 6.18333ZM11.0467 6.41667C10.8075 6.41667 10.5975 6.59167 10.5625 6.83083C10.5333 7.0175 10.4925 7.20417 10.4342 7.37333L11.175 8.11417C11.35 7.76417 11.4783 7.385 11.5425 6.9825C11.5833 6.685 11.35 6.41667 11.0467 6.41667ZM2.66416 2.07667C2.43666 2.30417 2.43666 2.67167 2.66416 2.89917L5.74999 5.99083V6.24167C5.74999 6.93583 6.09999 7.595 6.70082 7.93917C7.13832 8.19 7.52332 8.19583 7.87916 8.12L8.84749 9.08833C8.43332 9.28083 7.97249 9.39167 7.49999 9.39167C6.01832 9.39167 4.65332 8.35917 4.43749 6.83083C4.40249 6.59167 4.19249 6.41667 3.95332 6.41667C3.64999 6.41667 3.41666 6.685 3.45749 6.9825C3.72582 8.70917 5.18416 10.0742 6.91666 10.3367V11.6667C6.91666 11.9875 7.17916 12.25 7.49999 12.25C7.82082 12.25 8.08332 11.9875 8.08332 11.6667V10.3367C8.61416 10.2608 9.11582 10.0742 9.57082 9.81167L11.6067 11.8475C11.8342 12.075 12.2017 12.075 12.4292 11.8475C12.6567 11.62 12.6567 11.2525 12.4292 11.025L3.48666 2.07667C3.25916 1.84917 2.89166 1.84917 2.66416 2.07667Z" fill="#333333"/>
</svg>
