<svg width="16" height="17" viewBox="0 0 16 17" fill="none" xmlns="http://www.w3.org/2000/svg">
<g clip-path="url(#clip0_2202_1234)">
<path d="M10.3333 9.83332H9.80666L9.61999 9.65332C10.42 8.71999 10.8333 7.44666 10.6067 6.09332C10.2933 4.23999 8.74666 2.75999 6.87999 2.53332C4.05999 2.18666 1.68666 4.55999 2.03332 7.37999C2.25999 9.24666 3.73999 10.7933 5.59332 11.1067C6.94666 11.3333 8.21999 10.92 9.15332 10.12L9.33332 10.3067V10.8333L12.1667 13.6667C12.44 13.94 12.8867 13.94 13.16 13.6667C13.4333 13.3933 13.4333 12.9467 13.16 12.6733L10.3333 9.83332ZM6.33332 9.83332C4.67332 9.83332 3.33332 8.49332 3.33332 6.83332C3.33332 5.17332 4.67332 3.83332 6.33332 3.83332C7.99332 3.83332 9.33332 5.17332 9.33332 6.83332C9.33332 8.49332 7.99332 9.83332 6.33332 9.83332Z" fill="#BDBDBD"/>
</g>
<defs>
<clipPath id="clip0_2202_1234">
<rect width="16" height="16" fill="white" transform="translate(0 0.5)"/>
</clipPath>
</defs>
</svg>
