<svg width="16" height="16" viewBox="0 0 16 16" fill="none" xmlns="http://www.w3.org/2000/svg">
<path d="M15.3333 10H14V11.3333H15.3333V10ZM15.3333 7.33333H14V8.66667H15.3333V7.33333ZM15.3333 12.6667H14V14C14.6666 14 15.3333 13.3333 15.3333 12.6667ZM9.99996 2H8.66663V3.33333H9.99996V2ZM15.3333 4.66667H14V6H15.3333V4.66667ZM14 2V3.33333H15.3333C15.3333 2.66667 14.6666 2 14 2ZM1.99996 14H7.33329V11.3333C7.33329 10.6 6.73329 10 5.99996 10H0.666626V12.6667C0.666626 13.4 1.26663 14 1.99996 14ZM1.99996 4.66667H0.666626V6H1.99996V4.66667ZM9.99996 12.6667H8.66663V14H9.99996V12.6667ZM12.6666 2H11.3333V3.33333H12.6666V2ZM12.6666 12.6667H11.3333V14H12.6666V12.6667ZM1.99996 2C1.33329 2 0.666626 2.66667 0.666626 3.33333H1.99996V2ZM1.99996 7.33333H0.666626V8.66667H1.99996V7.33333ZM7.33329 2H5.99996V3.33333H7.33329V2ZM4.66663 2H3.33329V3.33333H4.66663V2Z" fill="white"/>
</svg>
