<svg width="17" height="17" viewBox="0 0 17 17" fill="none" xmlns="http://www.w3.org/2000/svg">
<path d="M2.5 7.16666V9.83333C2.5 10.2 2.8 10.5 3.16667 10.5H5.16667L7.36 12.6933C7.78 13.1133 8.5 12.8133 8.5 12.22V4.77333C8.5 4.18 7.78 3.88 7.36 4.3L5.16667 6.5H3.16667C2.8 6.5 2.5 6.8 2.5 7.16666ZM11.5 8.5C11.5 7.32 10.82 6.30666 9.83333 5.81333V11.18C10.82 10.6933 11.5 9.68 11.5 8.5ZM9.83333 3.46666V3.6C9.83333 3.85333 10 4.07333 10.2333 4.16666C11.9533 4.85333 13.1667 6.54 13.1667 8.5C13.1667 10.46 11.9533 12.1467 10.2333 12.8333C9.99333 12.9267 9.83333 13.1467 9.83333 13.4V13.5333C9.83333 13.9533 10.2533 14.2467 10.64 14.1C12.9 13.24 14.5 11.06 14.5 8.5C14.5 5.94 12.9 3.76 10.64 2.9C10.2533 2.74666 9.83333 3.04666 9.83333 3.46666V3.46666Z" fill="white"/>
</svg>
